<svg xmlns="http://www.w3.org/2000/svg"  viewBox="0 0 48 48" width="240px" height="240px" baseProfile="basic"><path d="M39,29c-0.494,0-0.988-0.182-1.376-0.548l-4.75-4.5c-0.802-0.76-0.836-2.025-0.076-2.828	c0.761-0.803,2.024-0.835,2.828-0.076l4.75,4.5c0.802,0.76,0.836,2.025,0.076,2.828C40.059,28.791,39.529,29,39,29z"/><path d="M35,47c-0.494,0-0.988-0.182-1.376-0.548l-4.75-4.5c-0.802-0.76-0.836-2.025-0.076-2.828	c0.761-0.802,2.025-0.835,2.828-0.076l4.75,4.5c0.802,0.76,0.836,2.025,0.076,2.828C36.059,46.791,35.529,47,35,47z"/><path d="M39,10V8h-0.452c-0.641-1.271-1.946-2-3.779-2c-0.591,0-1.183,0.151-1.742,0.441C30.779,4.82,27.644,4,23.69,4	c-3.374,0-6.186,0.888-8.369,2.641C14.663,6.22,13.953,6,13.231,6c-1.833,0-3.139,0.729-3.779,2H9v2	c0,1.468,0.853,2.713,2.279,3.408C11.094,14.278,11,15.146,11,16v10c0,1.913-0.219,3.091-0.45,4.338	c-0.195,1.049-0.393,2.131-0.489,3.662H10v2c0,5.407,5.121,11,13.69,11C34.241,47,38,41.317,38,36v-2h-0.093	c-0.094-1.244-0.247-2.589-0.414-3.997c-0.203-1.715-0.413-3.487-0.494-5.055c-0.159-3.044-0.104-5.109-0.05-7.106	C36.976,16.893,37,15.975,37,15c0-0.572-0.034-1.139-0.103-1.693C38.229,12.597,39,11.404,39,10z"/><path d="M9.25,29c-0.529,0-1.059-0.209-1.452-0.624c-0.76-0.803-0.726-2.068,0.076-2.828l4.75-4.5	c0.802-0.758,2.068-0.726,2.828,0.076c0.76,0.803,0.726,2.068-0.076,2.828l-4.75,4.5C10.239,28.818,9.744,29,9.25,29z"/><path d="M13.25,47c-0.529,0-1.059-0.209-1.452-0.624c-0.76-0.803-0.726-2.068,0.076-2.828l4.75-4.5	c0.802-0.758,2.067-0.726,2.828,0.076c0.76,0.803,0.726,2.068-0.076,2.828l-4.75,4.5C14.239,46.818,13.744,47,13.25,47z"/><path fill="#fff" d="M38,8c0-1.933-1.149-3-3.231-3c-0.654,0-1.268,0.254-1.804,0.661C30.962,3.968,27.923,3,23.69,3	c-3.769,0-6.478,1.192-8.333,2.933C14.752,5.37,14.02,5,13.231,5C11.149,5,10,6.067,10,8c0,1.438,1.063,2.394,2.463,2.791	C12.153,11.877,12,12.972,12,14c0,3,0,5.312,0,10c0,4.194-1,5-1,10c0,4.774,4.568,10,12.69,10C33.781,44,37,38.774,37,34	c0-3-0.814-7.438-1-11c-0.237-4.547,0-7,0-10c0-0.806-0.072-1.572-0.208-2.3C37.061,10.262,38,9.347,38,8z"/><circle cx="35" cy="8" r="1"/><circle cx="13" cy="8" r="1"/><path d="M23.69,45C15.121,45,10,39.407,10,34c0-2.702,0.279-4.207,0.55-5.662C10.781,27.091,11,25.913,11,24V14	c0-0.854,0.094-1.722,0.279-2.592C9.853,10.713,9,9.468,9,8c0-2.505,1.582-4,4.231-4c0.722,0,1.432,0.22,2.09,0.641	C17.505,2.888,20.316,2,23.69,2c3.953,0,7.089,0.82,9.336,2.441C33.586,4.151,34.178,4,34.769,4C37.418,4,39,5.495,39,8	c0,1.404-0.771,2.597-2.103,3.307C36.966,11.861,37,12.428,37,13c0,0.975-0.024,1.893-0.051,2.842	c-0.054,1.997-0.109,4.063,0.05,7.106c0.081,1.567,0.291,3.34,0.494,5.055C37.754,30.207,38,32.288,38,34	C38,39.317,34.241,45,23.69,45z M13.231,6C11.231,6,11,7.142,11,8c0,1.164,1.087,1.646,1.735,1.829	c0.256,0.072,0.472,0.243,0.601,0.475c0.13,0.232,0.161,0.506,0.089,0.762C13.146,12.039,13,13.055,13,14v10	c0,2.098-0.246,3.422-0.484,4.703C12.263,30.069,12,31.482,12,34c0,4.424,4.373,9,11.69,9C31.398,43,36,39.636,36,34	c0-1.594-0.239-3.618-0.493-5.763c-0.207-1.746-0.421-3.553-0.506-5.186c-0.163-3.123-0.105-5.229-0.051-7.265	C34.976,14.856,35,13.956,35,13c0-0.725-0.064-1.438-0.191-2.117c-0.091-0.487,0.189-0.968,0.657-1.129C36.039,9.557,37,9.065,37,8	c0-0.858-0.231-2-2.231-2c-0.396,0-0.8,0.153-1.198,0.457c-0.373,0.285-0.895,0.27-1.251-0.032C30.416,4.815,27.513,4,23.69,4	c-3.193,0-5.767,0.896-7.648,2.662c-0.384,0.36-0.98,0.361-1.366,0.003C14.351,6.361,13.835,6,13.231,6z"/><path d="M29,16c-2.757,0-5-2.243-5-5s2.243-5,5-5s5,2.243,5,5S31.757,16,29,16z M29,8c-1.654,0-3,1.346-3,3s1.346,3,3,3 s3-1.346,3-3S30.654,8,29,8z"/><path d="M19,16c-2.757,0-5-2.243-5-5s2.243-5,5-5s5,2.243,5,5S21.757,16,19,16z M19,8c-1.654,0-3,1.346-3,3s1.346,3,3,3 s3-1.346,3-3S20.654,8,19,8z"/><path d="M24,23c-3.436,0-5-2.333-5-4.5c0-2.5,2.504-2.5,4-2.5h2c1.496,0,4,0,4,2.5C29,20.667,27.436,23,24,23z M23,18	c-1.911,0-2,0.172-2,0.5c0,0.417,0.145,2.5,3,2.5s3-2.083,3-2.5c0-0.328-0.089-0.5-2-0.5H23z"/><circle cx="27" cy="11" r="1"/><circle cx="17" cy="11" r="1"/><ellipse cx="24" cy="16" rx="2" ry="1.5"/></svg>